<svg xmlns="http://www.w3.org/2000/svg" width="179" height="159" viewBox="0 0 179 159"><defs><style>.a{fill:#fff;}.b{fill:#e2037a;}</style></defs><g transform="translate(-236 -285)"><rect class="a" width="179" height="159" rx="24" transform="translate(236 285)"/><path class="b" d="M45,0A45,45,0,0,1,90,45c0,1.153-2.166,5.977-5.341,5.448-4.532-.752-6.2-7.461-6.618-5.448-.373,1.819,4.407-21.072-24.323-31.017C22.777,7.352,16.147,32.768,16.147,32.768S5.1,58.184,30.512,74.759c24.311,11.05,36.574-10.517,42.529-5.525,4.894,4.1,1.279,9.883,0,10.918a45.332,45.332,0,0,1-13.55,7.464A44.524,44.524,0,0,1,45,90,45,45,0,0,1,45,0Z" transform="translate(280 312)"/><circle class="b" cx="10" cy="10" r="10" transform="translate(350 402)"/></g></svg>